name Walk2.mot
datacolumns 19
datarows 12
range 4.35800000 4.36900000
endheader

                time	   L_ground_force_vx	   L_ground_force_vy	   L_ground_force_vz	   L_ground_force_px	   L_ground_force_py	   L_ground_force_pz	   R_ground_force_vx	   R_ground_force_vy	   R_ground_force_vz	   R_ground_force_px	   R_ground_force_py	   R_ground_force_pz	   L_ground_torque_x	   L_ground_torque_y	   L_ground_torque_z	   R_ground_torque_x	   R_ground_torque_y	   R_ground_torque_z	
          4.35800000	         23.24833740	         83.30487957	          0.61036722	          0.31678419	          0.00000000	          0.12746311	          0.00000000	          0.00000000	          0.00000000	          0.00000000	          0.00000000	          0.00000000	          0.00000000	         -5.78795611	          0.00000000	          0.00000000	          0.00000000	          0.00000000	
          4.35900000	         21.61551394	         76.64873787	          0.79655607	          0.31617100	          0.00000000	          0.12633107	          0.00000000	          0.00000000	          0.00000000	          0.00000000	          0.00000000	          0.00000000	          0.00000000	         -5.49766150	          0.00000000	          0.00000000	          0.00000000	          0.00000000	
          4.36000000	         19.98802781	         70.13762503	          0.97733500	          0.31630624	          0.00000000	          0.12557552	          0.00000000	          0.00000000	          0.00000000	          0.00000000	          0.00000000	          0.00000000	          0.00000000	         -5.20477097	          0.00000000	          0.00000000	          0.00000000	          0.00000000	
          4.36100000	         18.36706803	         63.83256846	          1.15213863	          0.31730898	          0.00000000	          0.12529291	          0.00000000	          0.00000000	          0.00000000	          0.00000000	          0.00000000	          0.00000000	          0.00000000	         -4.90917210	          0.00000000	          0.00000000	          0.00000000	          0.00000000	
          4.36200000	         16.74600005	         57.81028671	          1.32360348	          0.31876593	          0.00000000	          0.12531252	          0.00000000	          0.00000000	          0.00000000	          0.00000000	          0.00000000	          0.00000000	          0.00000000	         -4.61700003	          0.00000000	          0.00000000	          0.00000000	          0.00000000	
          4.36300000	         15.12351482	         52.11806761	          1.49027299	          0.32011488	          0.00000000	          0.12529933	          0.00000000	          0.00000000	          0.00000000	          0.00000000	          0.00000000	          0.00000000	          0.00000000	         -4.33466406	          0.00000000	          0.00000000	          0.00000000	          0.00000000	
          4.36400000	         13.50444404	         46.75544562	          1.64025217	          0.32108752	          0.00000000	          0.12499462	          0.00000000	          0.00000000	          0.00000000	          0.00000000	          0.00000000	          0.00000000	          0.00000000	         -4.06202015	          0.00000000	          0.00000000	          0.00000000	          0.00000000	
          4.36500000	         11.88931468	         41.65503906	          1.76719578	          0.32183768	          0.00000000	          0.12430648	          0.00000000	          0.00000000	          0.00000000	          0.00000000	          0.00000000	          0.00000000	          0.00000000	         -3.79113208	          0.00000000	          0.00000000	          0.00000000	          0.00000000	
          4.36600000	         10.26413797	         36.66257600	          1.87275390	          0.32279401	          0.00000000	          0.12321930	          0.00000000	          0.00000000	          0.00000000	          0.00000000	          0.00000000	          0.00000000	          0.00000000	         -3.50463054	          0.00000000	          0.00000000	          0.00000000	          0.00000000	
          4.36700000	          8.60083835	         31.54282565	          1.93352596	          0.32427680	          0.00000000	          0.12161008	          0.00000000	          0.00000000	          0.00000000	          0.00000000	          0.00000000	          0.00000000	          0.00000000	         -3.17133384	          0.00000000	          0.00000000	          0.00000000	          0.00000000	
          4.36800000	          6.87715043	         26.06426430	          1.88816400	          0.32616989	          0.00000000	          0.11925965	          0.00000000	          0.00000000	          0.00000000	          0.00000000	          0.00000000	          0.00000000	          0.00000000	         -2.75217621	          0.00000000	          0.00000000	          0.00000000	          0.00000000	
          4.36900000	          5.11049688	         20.13810787	          1.68005455	          0.32802396	          0.00000000	          0.11618046	          0.00000000	          0.00000000	          0.00000000	          0.00000000	          0.00000000	          0.00000000	          0.00000000	         -2.22268455	          0.00000000	          0.00000000	          0.00000000	          0.00000000	
